<svg width="21" height="23" viewBox="0 0 21 23" fill="none" xmlns="http://www.w3.org/2000/svg">
<path d="M20.6925 16.2135C20.5796 15.9448 20.4665 15.6538 20.3536 15.4073C20.1725 15.0044 19.9916 14.6235 19.8338 14.2654L19.8112 14.243C18.2515 10.8842 16.5793 7.48105 14.8161 4.12266L14.7484 3.988C14.5629 3.6396 14.3822 3.28876 14.2063 2.93557C13.98 2.53226 13.7542 2.10726 13.3925 1.70396C12.6693 0.808328 11.6295 0.315552 10.5223 0.315552C9.39197 0.315552 8.37502 0.80833 7.62947 1.659C7.29033 2.06186 7.04151 2.48731 6.81572 2.89061C6.63932 3.24358 6.4586 3.59442 6.2736 3.94304L6.20564 4.07769C4.46526 7.43609 2.77025 10.8394 1.21073 14.1981L1.18793 14.2426C1.02987 14.6014 0.848789 14.9818 0.667932 15.3845C0.555037 15.631 0.442143 15.8996 0.329248 16.1906C0.0352707 17.0189 -0.0552751 17.8027 0.0580711 18.6091C0.306665 20.2885 1.43651 21.6986 2.99627 22.3261C3.584 22.5726 4.1943 22.6844 4.82697 22.6844C5.00782 22.6844 5.23362 22.662 5.4147 22.6394C6.16071 22.55 6.92907 22.3039 7.67507 21.8785C8.60171 21.3633 9.48319 20.6247 10.4776 19.5499C11.4719 20.6247 12.376 21.3633 13.2801 21.8785C14.0263 22.3039 14.7944 22.55 15.5402 22.6394C15.7211 22.6623 15.9473 22.6844 16.1282 22.6844C16.7611 22.6844 17.3937 22.5726 17.9586 22.3261C19.541 21.6986 20.6482 20.2662 20.8971 18.6091C21.0766 17.8255 20.9862 17.0422 20.6925 16.2135ZM10.4995 17.3777C9.27886 15.8551 8.48769 14.4222 8.21674 13.2134C8.10384 12.6983 8.08104 12.2504 8.14901 11.8474C8.19394 11.489 8.32986 11.1754 8.51072 10.9068C8.94017 10.3026 9.66338 9.92166 10.4997 9.92166C11.3362 9.92166 12.082 10.28 12.4889 10.9068C12.6698 11.1754 12.8052 11.4892 12.8508 11.8474C12.9184 12.2507 12.8958 12.7206 12.7829 13.2134C12.5108 14.3998 11.7196 15.833 10.4995 17.3777ZM19.517 18.4302C19.359 19.5944 18.5678 20.6023 17.4606 21.0502C16.9182 21.2738 16.3302 21.3412 15.743 21.2738C15.178 21.2065 14.6127 21.0273 14.0254 20.6918C13.2117 20.2436 12.3981 19.5499 11.4487 18.5196C12.9403 16.7062 13.8443 15.049 14.1835 13.5715C14.3417 12.8772 14.3645 12.2504 14.2963 11.668C14.2063 11.1083 14.0026 10.5932 13.6863 10.1453C12.9852 9.13743 11.8097 8.55563 10.4992 8.55563C9.18876 8.55563 8.0133 9.16024 7.31268 10.1453C6.99635 10.5932 6.79269 11.1083 6.70237 11.668C6.61205 12.2504 6.63441 12.8996 6.81527 13.5715C7.15417 15.049 8.08082 16.7284 9.5498 18.542C8.62317 19.5721 7.78684 20.2664 6.97309 20.7142C6.38536 21.0502 5.82067 21.2293 5.25574 21.2962C4.64566 21.3636 4.0577 21.2739 3.53794 21.0725C2.43067 20.6247 1.6395 19.6168 1.48145 18.4525C1.41371 17.8929 1.45865 17.3332 1.68489 16.7062C1.7524 16.4821 1.86574 16.2584 1.97864 15.9898C2.13691 15.6314 2.31732 15.2505 2.4984 14.87L2.52121 14.8255C4.08051 11.489 5.75293 8.08567 7.49332 4.77201L7.56105 4.63735C7.74213 4.30183 7.92299 3.94349 8.10362 3.60751C8.28448 3.24917 8.48769 2.9132 8.73651 2.62196C9.21112 2.08512 9.84378 1.79366 10.5446 1.79366C11.2455 1.79366 11.8781 2.08512 12.3528 2.62196C12.6016 2.91387 12.8048 3.24984 12.9856 3.60751C13.1667 3.94349 13.3476 4.30183 13.528 4.63735L13.5959 4.77201C15.3098 8.09943 16.96 11.4587 18.5457 14.8479V14.8702C18.7268 15.229 18.8848 15.6316 19.0657 15.9904C19.1786 16.2586 19.2917 16.4823 19.3594 16.7065C19.5398 17.288 19.6076 17.8481 19.517 18.4302Z" fill="#FF5A5F"/>
</svg>
